# xmcd
#
# Track frame offsets:
#	150
#	26157
#	34952
#	52780
#	63170
#	79095
#	97147
#	110657
#	130532
#	150430
#	168615
#	181710
#	194857
#	210572
#	232965
#
# Disc length: 3360 seconds
# Revision: 0
# Processed by: cddbd v1.5.2PL0 Copyright (c) Steve Scherf et al.
# Submitted via: dBpowerAMP V12.0
#
DISCID=c50d1e0f
DTITLE=John McEuen - Acoustic Traveller
DYEAR=1996
DGENRE=Country
TTITLE0=Gypsy Knights
TTITLE1=Fisher's
TTITLE2=Keep Walking
TTITLE3=Turki Innastra
TTITLE4=Acoustic Traveller
TTITLE5=Moonlight Dancing
TTITLE6=Lady's Choice
TTITLE7=Old Country
TTITLE8=Homecoming
TTITLE9=Go Lightly in the Night
TTITLE10=Back N 4th in Pahrump, Nevada
TTITLE11=After Dark
TTITLE12=I Am a Pilgrim
TTITLE13=Mr. Bojangles (Suite)
TTITLE14=Gypsy Knights (Reprise)
EXTD=
EXTT0=
EXTT1=
EXTT2=
EXTT3=
EXTT4=
EXTT5=
EXTT6=
EXTT7=
EXTT8=
EXTT9=
EXTT10=
EXTT11=
EXTT12=
EXTT13=
EXTT14=
PLAYORDER=
